# xmcd
#
# Track frame offsets:
#	150
#	12853
#	29152
#	43167
#	53299
#	64505
#	81854
#
# Disc length: 1327 seconds
#
# Revision: 1
# Processed by: cddbd v1.5.1PL0 Copyright (c) Steve Scherf et al.
# Submitted via: audiograbber 1.83.01
#
DISCID=50052d07
DTITLE=Big Deal - Big Deal
DYEAR=1999
DGENRE=Rock and Roll
TTITLE0=Jumpin' Jive
TTITLE1=Sick and Tired
TTITLE2=Talk to me baby
TTITLE3=Get Lost In Mexico
TTITLE4=Nothin' but fine
TTITLE5=Down down
TTITLE6=Walking Home
EXTD=
EXTT0=
EXTT1=
EXTT2=
EXTT3=
EXTT4=
EXTT5=
EXTT6=
PLAYORDER=
